# xmcd CD database file
#
# Track frame offsets:
#	150
#	18035
#	33974
#	55652
#	77497
#	97023
#	121675
#	141308
#	159405
#	181404
#	197290
#	218852
#	239391
#	254883
#	275183
#	293058
#	311376
#	327873
#	344551
#
# Disc length: 4674 seconds
#
# Revision: 2
# Processed by: cddbd v1.5.1PL2 Copyright (c) Steve Scherf et al.
# Submitted via: CDex 1.51
#
DISCID=0f124013
DTITLE=Dr. Dre - The Chronicle and 7 Bonus
DYEAR=1900
DGENRE=Hip-Hop
TTITLE0=01 Nuthin But a G Thing
TTITLE1=Gin and Juice
TTITLE2=Afro Puffs
TTITLE3=Natural Born Killaz
TTITLE4=Murder Was The Case (soundtrack)
TTITLE5=Lil' Ghetto Boy
TTITLE6=Let Me Ride
TTITLE7=California Love
TTITLE8=Fuck wit Dr. Dre day
TTITLE9=Serial Killa
TTITLE10=Stranded on death Row
TTITLE11=Nuthin Nut a G Thing (Re-Mix)
TTITLE12=The watcher
TTITLE13=still DRE
TTITLE14=Big Ego's
TTITLE15=What's the Difference
TTITLE16=Ackrite
TTITLE17=Bang Bang
TTITLE18=The Next Episode
EXTD=
EXTT0=
EXTT1=
EXTT2=
EXTT3=
EXTT4=
EXTT5=
EXTT6=
EXTT7=
EXTT8=
EXTT9=
EXTT10=
EXTT11=
EXTT12=
EXTT13=
EXTT14=
EXTT15=
EXTT16=
EXTT17=
EXTT18=
PLAYORDER=
